<svg width="113" height="34" viewBox="0 0 113 34" fill="none" xmlns="http://www.w3.org/2000/svg">
<path d="M16.26 23.598L16.242 27H0.0780001L0.0780001 1.08H16.242V4.482H4.308L4.308 12.294H13.848V15.588H4.308V23.598H16.26ZM23.5483 22.392C24.0883 23.088 24.6763 23.58 25.3123 23.868C25.9603 24.144 26.6743 24.282 27.4543 24.282C28.9663 24.282 30.1423 23.73 30.9823 22.626C31.8343 21.522 32.2603 19.878 32.2603 17.694C32.2603 16.566 32.1643 15.606 31.9723 14.814C31.7803 14.01 31.5043 13.356 31.1443 12.852C30.7843 12.348 30.3463 11.982 29.8303 11.754C29.3143 11.526 28.7323 11.412 28.0843 11.412C27.1003 11.412 26.2483 11.628 25.5283 12.06C24.8203 12.48 24.1603 13.086 23.5483 13.878V22.392ZM23.3503 11.304C24.1183 10.404 24.9883 9.678 25.9603 9.126C26.9443 8.574 28.0843 8.298 29.3803 8.298C30.4123 8.298 31.3483 8.508 32.1883 8.928C33.0283 9.336 33.7483 9.936 34.3483 10.728C34.9483 11.52 35.4103 12.504 35.7343 13.68C36.0703 14.844 36.2383 16.182 36.2383 17.694C36.2383 19.05 36.0523 20.316 35.6803 21.492C35.3203 22.656 34.7983 23.67 34.1143 24.534C33.4303 25.386 32.6023 26.058 31.6303 26.55C30.6583 27.03 29.5603 27.27 28.3363 27.27C27.2563 27.27 26.3383 27.096 25.5823 26.748C24.8383 26.4 24.1603 25.92 23.5483 25.308V33.102H19.6783V8.64H22.0183C22.5463 8.64 22.8823 8.886 23.0263 9.378L23.3503 11.304ZM44.0306 8.64V27H40.1606V8.64H44.0306ZM44.6786 3.096C44.6786 3.444 44.6066 3.774 44.4626 4.086C44.3306 4.398 44.1446 4.674 43.9046 4.914C43.6646 5.142 43.3826 5.328 43.0586 5.472C42.7466 5.604 42.4106 5.67 42.0506 5.67C41.7026 5.67 41.3726 5.604 41.0606 5.472C40.7606 5.328 40.4966 5.142 40.2686 4.914C40.0406 4.674 39.8546 4.398 39.7106 4.086C39.5786 3.774 39.5126 3.444 39.5126 3.096C39.5126 2.736 39.5786 2.4 39.7106 2.088C39.8546 1.776 40.0406 1.506 40.2686 1.278C40.4966 1.038 40.7606 0.851998 41.0606 0.719999C41.3726 0.575998 41.7026 0.503998 42.0506 0.503998C42.4106 0.503998 42.7466 0.575998 43.0586 0.719999C43.3826 0.851998 43.6646 1.038 43.9046 1.278C44.1446 1.506 44.3306 1.776 44.4626 2.088C44.6066 2.4 44.6786 2.736 44.6786 3.096ZM61.8712 12.24C61.7512 12.396 61.6372 12.516 61.5292 12.6C61.4212 12.684 61.2652 12.726 61.0612 12.726C60.8572 12.726 60.6412 12.654 60.4132 12.51C60.1972 12.366 59.9332 12.21 59.6212 12.042C59.3212 11.862 58.9552 11.7 58.5232 11.556C58.0912 11.412 57.5512 11.34 56.9032 11.34C56.0632 11.34 55.3252 11.49 54.6892 11.79C54.0652 12.09 53.5372 12.522 53.1052 13.086C52.6852 13.638 52.3672 14.316 52.1512 15.12C51.9472 15.912 51.8452 16.806 51.8452 17.802C51.8452 18.834 51.9592 19.752 52.1872 20.556C52.4152 21.36 52.7392 22.038 53.1592 22.59C53.5912 23.142 54.1072 23.562 54.7072 23.85C55.3192 24.138 56.0032 24.282 56.7592 24.282C57.5032 24.282 58.1092 24.192 58.5772 24.012C59.0452 23.832 59.4352 23.634 59.7472 23.418C60.0592 23.202 60.3232 23.004 60.5392 22.824C60.7672 22.644 61.0072 22.554 61.2592 22.554C61.5712 22.554 61.8112 22.674 61.9792 22.914L63.0772 24.336C62.6332 24.876 62.1412 25.332 61.6012 25.704C61.0612 26.076 60.4912 26.382 59.8912 26.622C59.2912 26.85 58.6672 27.012 58.0192 27.108C57.3712 27.216 56.7172 27.27 56.0572 27.27C54.9172 27.27 53.8492 27.06 52.8532 26.64C51.8692 26.208 51.0052 25.59 50.2612 24.786C49.5292 23.97 48.9472 22.98 48.5152 21.816C48.0952 20.64 47.8852 19.302 47.8852 17.802C47.8852 16.446 48.0772 15.192 48.4612 14.04C48.8452 12.876 49.4032 11.874 50.1352 11.034C50.8792 10.194 51.7972 9.54 52.8892 9.072C53.9812 8.592 55.2412 8.352 56.6692 8.352C58.0012 8.352 59.1712 8.568 60.1792 9C61.1992 9.432 62.1052 10.044 62.8972 10.836L61.8712 12.24ZM76 18.972C74.62 19.02 73.456 19.134 72.508 19.314C71.56 19.482 70.792 19.704 70.204 19.98C69.616 20.244 69.19 20.562 68.926 20.934C68.674 21.306 68.548 21.714 68.548 22.158C68.548 22.59 68.614 22.962 68.746 23.274C68.89 23.574 69.082 23.826 69.322 24.03C69.574 24.222 69.862 24.366 70.186 24.462C70.522 24.546 70.888 24.588 71.284 24.588C72.292 24.588 73.156 24.402 73.876 24.03C74.608 23.646 75.316 23.094 76 22.374V18.972ZM65.74 11.196C67.816 9.264 70.288 8.298 73.156 8.298C74.212 8.298 75.148 8.472 75.964 8.82C76.792 9.156 77.482 9.636 78.034 10.26C78.598 10.884 79.024 11.628 79.312 12.492C79.612 13.344 79.762 14.292 79.762 15.336V27H78.034C77.662 27 77.38 26.946 77.188 26.838C76.996 26.718 76.834 26.484 76.702 26.136L76.324 24.642C75.856 25.062 75.394 25.44 74.938 25.776C74.482 26.1 74.008 26.376 73.516 26.604C73.036 26.832 72.514 27 71.95 27.108C71.398 27.228 70.786 27.288 70.114 27.288C69.37 27.288 68.674 27.186 68.026 26.982C67.39 26.778 66.838 26.472 66.37 26.064C65.902 25.644 65.53 25.128 65.254 24.516C64.99 23.904 64.858 23.184 64.858 22.356C64.858 21.648 65.044 20.958 65.416 20.286C65.8 19.614 66.424 19.014 67.288 18.486C68.164 17.946 69.31 17.502 70.726 17.154C72.154 16.806 73.912 16.608 76 16.56V15.336C76 14.016 75.718 13.032 75.154 12.384C74.59 11.736 73.762 11.412 72.67 11.412C71.926 11.412 71.302 11.508 70.798 11.7C70.294 11.88 69.856 12.078 69.484 12.294C69.112 12.51 68.782 12.714 68.494 12.906C68.206 13.086 67.9 13.176 67.576 13.176C67.312 13.176 67.084 13.11 66.892 12.978C66.712 12.834 66.562 12.66 66.442 12.456L65.74 11.196ZM87.9495 12.042C88.5255 10.878 89.2215 9.966 90.0375 9.306C90.8535 8.634 91.8315 8.298 92.9715 8.298C93.3675 8.298 93.7395 8.346 94.0875 8.442C94.4355 8.526 94.7475 8.658 95.0235 8.838L94.7535 11.754C94.7055 11.958 94.6275 12.102 94.5195 12.186C94.4235 12.258 94.2915 12.294 94.1235 12.294C93.9435 12.294 93.6855 12.264 93.3495 12.204C93.0135 12.132 92.6595 12.096 92.2875 12.096C91.7475 12.096 91.2675 12.174 90.8475 12.33C90.4395 12.486 90.0675 12.714 89.7315 13.014C89.4075 13.314 89.1195 13.68 88.8675 14.112C88.6155 14.544 88.3815 15.036 88.1655 15.588V27H84.2955V8.64H86.5455C86.9535 8.64 87.2355 8.718 87.3915 8.874C87.5475 9.018 87.6555 9.276 87.7155 9.648L87.9495 12.042ZM108.994 15.75C108.994 15.102 108.898 14.502 108.706 13.95C108.526 13.386 108.256 12.9 107.896 12.492C107.536 12.072 107.086 11.748 106.546 11.52C106.018 11.28 105.406 11.16 104.71 11.16C103.306 11.16 102.202 11.562 101.398 12.366C100.594 13.17 100.084 14.298 99.8678 15.75H108.994ZM99.7598 18.126C99.8078 19.17 99.9698 20.076 100.246 20.844C100.522 21.6 100.888 22.23 101.344 22.734C101.812 23.238 102.364 23.616 103 23.868C103.648 24.108 104.368 24.228 105.16 24.228C105.916 24.228 106.57 24.144 107.122 23.976C107.674 23.796 108.154 23.604 108.562 23.4C108.97 23.184 109.318 22.992 109.606 22.824C109.894 22.644 110.158 22.554 110.398 22.554C110.71 22.554 110.95 22.674 111.118 22.914L112.216 24.336C111.76 24.876 111.244 25.332 110.668 25.704C110.092 26.076 109.48 26.382 108.832 26.622C108.184 26.85 107.518 27.012 106.834 27.108C106.15 27.216 105.484 27.27 104.836 27.27C103.564 27.27 102.382 27.06 101.29 26.64C100.21 26.208 99.2678 25.578 98.4638 24.75C97.6718 23.922 97.0478 22.896 96.5918 21.672C96.1478 20.448 95.9258 19.038 95.9258 17.442C95.9258 16.17 96.1238 14.982 96.5198 13.878C96.9278 12.774 97.5038 11.814 98.2478 10.998C99.0038 10.182 99.9158 9.54 100.984 9.072C102.064 8.592 103.282 8.352 104.638 8.352C105.766 8.352 106.81 8.538 107.77 8.91C108.73 9.27 109.558 9.804 110.254 10.512C110.95 11.22 111.49 12.09 111.874 13.122C112.27 14.142 112.468 15.306 112.468 16.614C112.468 17.214 112.402 17.616 112.27 17.82C112.138 18.024 111.898 18.126 111.55 18.126H99.7598Z" fill="#172A3A"/>
</svg>
