<?xml version="1.0" encoding="utf-8"?>
<!-- Generator: Adobe Illustrator 26.0.1, SVG Export Plug-In . SVG Version: 6.00 Build 0)  -->
<svg version="1.1" id="Layer_1" xmlns="http://www.w3.org/2000/svg" xmlns:xlink="http://www.w3.org/1999/xlink" x="0px" y="0px"
	 viewBox="0 0 161 53" style="enable-background:new 0 0 161 53;" xml:space="preserve">
<style type="text/css">
	.st0{fill:#004346;}
	.st1{fill:none;stroke:#09BC8A;stroke-width:1.5;stroke-linecap:round;stroke-linejoin:round;}
	.st2{fill:#09BC8A;}
	.st3{fill:#172A3A;}
</style>
<g>
	<g>
		<path class="st0" d="M29.2,9.4l-1.5,1.4c0.2,0.2,0.4,0.4,0.7,0.5c0.3,0.1,0.5,0.2,0.8,0.2s0.5-0.1,0.8-0.2
			c0.3-0.1,0.5-0.3,0.7-0.5L29.2,9.4z M22.4,44.6c-3.9-3.1-8.4-7.2-11.9-11.8c-3.6-4.6-5.9-9.2-5.9-13.5h-4c0,5.6,3,11.2,6.8,16
			c3.8,4.8,8.6,9.2,12.5,12.4L22.4,44.6z M4.6,19.4c0-7.7,3.4-12.5,7.6-14.2c4.2-1.6,10-0.5,15.6,5.6L30.7,8c-6.4-6.8-13.9-9-20-6.5
			c-6.1,2.4-10.1,9-10.1,17.9H4.6z M38.6,47.7c4-3.2,8.7-7.6,12.5-12.4c3.8-4.8,6.8-10.3,6.8-16h-4c0,4.3-2.3,9-5.9,13.5
			c-3.5,4.5-8,8.6-11.9,11.8L38.6,47.7z M57.9,19.3c0-8.9-4-15.5-10.1-17.9C41.6-1,34.1,1.2,27.8,8l2.9,2.7c5.6-6,11.5-7.2,15.6-5.6
			c4.2,1.6,7.6,6.4,7.6,14.2H57.9z M19.9,47.7c3.4,2.8,5.7,4.8,9.4,4.8v-4c-1.9,0-3.1-0.9-6.8-3.9L19.9,47.7z M36.1,44.6
			c-3.7,3-4.9,3.9-6.8,3.9v4c3.6,0,6-2,9.4-4.8L36.1,44.6z"/>
		<path class="st1" d="M37.4,39.5l5.2-5.2c0.2-0.2,0.2-0.4,0.2-0.6v-7.2c0-0.5-0.2-1.1-0.6-1.5c-0.4-0.4-0.9-0.6-1.5-0.6
			s-1.1,0.2-1.5,0.6c-0.4,0.4-0.6,0.9-0.6,1.5v6.2"/>
		<path class="st1" d="M37.4,34.1l1.2-1.2c0.1-0.1,0.1-0.1,0.1-0.2c0-0.1,0.1-0.2,0.1-0.3c0-0.1,0-0.2-0.1-0.3
			c-0.1-0.1-0.2-0.2-0.3-0.2l-0.6-0.3c-0.5-0.3-1.1-0.3-1.7-0.3c-0.6,0.1-1.1,0.4-1.5,0.8l-1.2,1.2c-0.5,0.5-0.8,1.2-0.8,1.9v4.3
			 M21,39.5l-5.2-5.2c-0.2-0.2-0.2-0.4-0.2-0.6v-7.2c0-0.5,0.2-1.1,0.6-1.5c0.4-0.4,0.9-0.6,1.5-0.6c0.5,0,1.1,0.2,1.5,0.6
			c0.4,0.4,0.6,0.9,0.6,1.5v6.2"/>
		<path class="st1" d="M21,34.1l-1.2-1.2c-0.1-0.1-0.1-0.1-0.1-0.2c0-0.1-0.1-0.2-0.1-0.3c0-0.3,0.1-0.5,0.4-0.6l0.6-0.3
			c0.5-0.3,1.1-0.3,1.7-0.3c0.6,0.1,1.1,0.4,1.5,0.8l1.2,1.2c0.5,0.5,0.8,1.2,0.8,1.9v4.3"/>
		<path class="st2" d="M25.8,27.8v-3.7h-3.7v-7.4h3.7V13h7.4v3.7h3.7v7.4h-3.7v3.7H25.8z M23.6,19.6h3.7c0.1,0,0.2,0,0.4,0.1
			c0.1,0.1,0.2,0.1,0.3,0.2l0.6,1l1-3c0-0.1,0.1-0.3,0.3-0.4c0.1-0.1,0.3-0.1,0.4-0.1c0.1,0,0.2,0,0.4,0.1c0.1,0.1,0.2,0.1,0.3,0.2
			l1.3,1.9h3.3v-1.5h-3.7v-3.7h-4.4v3.7h-3.7V19.6z M27.3,26.3h4.4v-3.7h3.7v-1.5h-3.7c-0.1,0-0.2,0-0.4-0.1
			c-0.1-0.1-0.2-0.1-0.3-0.2l-0.6-1l-1,3c0,0.1-0.1,0.3-0.3,0.4c-0.1,0.1-0.3,0.1-0.4,0.1c-0.1,0-0.2,0-0.4-0.1
			c-0.1-0.1-0.2-0.1-0.3-0.2l-1.3-1.9h-3.3v1.5h3.7V26.3z"/>
	</g>
	<path class="st3" d="M81,37.4l0,2.8H67.6V18.8H81v2.8h-9.9V28H79v2.7h-7.9v6.6H81z M87,36.4c0.4,0.6,0.9,1,1.5,1.2
		c0.5,0.2,1.1,0.3,1.8,0.3c1.2,0,2.2-0.5,2.9-1.4c0.7-0.9,1.1-2.3,1.1-4.1c0-0.9-0.1-1.7-0.2-2.4c-0.2-0.7-0.4-1.2-0.7-1.6
		c-0.3-0.4-0.7-0.7-1.1-0.9c-0.4-0.2-0.9-0.3-1.4-0.3c-0.8,0-1.5,0.2-2.1,0.5c-0.6,0.3-1.1,0.8-1.6,1.5V36.4z M86.8,27.2
		c0.6-0.7,1.4-1.3,2.2-1.8c0.8-0.5,1.8-0.7,2.8-0.7c0.9,0,1.6,0.2,2.3,0.5c0.7,0.3,1.3,0.8,1.8,1.5s0.9,1.5,1.1,2.4
		c0.3,1,0.4,2.1,0.4,3.3c0,1.1-0.2,2.2-0.5,3.1c-0.3,1-0.7,1.8-1.3,2.5c-0.6,0.7-1.2,1.3-2.1,1.7c-0.8,0.4-1.7,0.6-2.7,0.6
		c-0.9,0-1.6-0.1-2.3-0.4c-0.6-0.3-1.2-0.7-1.7-1.2v6.4h-3.2V25h1.9c0.4,0,0.7,0.2,0.8,0.6L86.8,27.2z M103.9,25v15.2h-3.2V25H103.9
		z M104.4,20.4c0,0.3-0.1,0.6-0.2,0.8c-0.1,0.3-0.3,0.5-0.5,0.7c-0.2,0.2-0.4,0.3-0.7,0.5c-0.3,0.1-0.5,0.2-0.8,0.2
		c-0.3,0-0.6-0.1-0.8-0.2c-0.2-0.1-0.5-0.3-0.7-0.5c-0.2-0.2-0.3-0.4-0.5-0.7c-0.1-0.3-0.2-0.5-0.2-0.8c0-0.3,0.1-0.6,0.2-0.8
		c0.1-0.3,0.3-0.5,0.5-0.7c0.2-0.2,0.4-0.4,0.7-0.5c0.3-0.1,0.5-0.2,0.8-0.2c0.3,0,0.6,0.1,0.8,0.2c0.3,0.1,0.5,0.3,0.7,0.5
		c0.2,0.2,0.4,0.4,0.5,0.7C104.4,19.9,104.4,20.1,104.4,20.4z M118.6,28c-0.1,0.1-0.2,0.2-0.3,0.3c-0.1,0.1-0.2,0.1-0.4,0.1
		s-0.3-0.1-0.5-0.2c-0.2-0.1-0.4-0.2-0.7-0.4c-0.2-0.1-0.5-0.3-0.9-0.4c-0.4-0.1-0.8-0.2-1.3-0.2c-0.7,0-1.3,0.1-1.8,0.4
		c-0.5,0.2-1,0.6-1.3,1.1c-0.3,0.5-0.6,1-0.8,1.7c-0.2,0.7-0.3,1.4-0.3,2.2c0,0.9,0.1,1.6,0.3,2.3c0.2,0.7,0.5,1.2,0.8,1.7
		c0.4,0.5,0.8,0.8,1.3,1c0.5,0.2,1.1,0.4,1.7,0.4c0.6,0,1.1-0.1,1.5-0.2c0.4-0.1,0.7-0.3,1-0.5c0.3-0.2,0.5-0.3,0.7-0.5
		c0.2-0.1,0.4-0.2,0.6-0.2c0.3,0,0.5,0.1,0.6,0.3l0.9,1.2c-0.4,0.4-0.8,0.8-1.2,1.1s-0.9,0.6-1.4,0.8c-0.5,0.2-1,0.3-1.5,0.4
		c-0.5,0.1-1.1,0.1-1.6,0.1c-0.9,0-1.8-0.2-2.6-0.5c-0.8-0.4-1.5-0.9-2.1-1.5c-0.6-0.7-1.1-1.5-1.4-2.5c-0.3-1-0.5-2.1-0.5-3.3
		c0-1.1,0.2-2.2,0.5-3.1c0.3-1,0.8-1.8,1.4-2.5c0.6-0.7,1.4-1.2,2.3-1.6c0.9-0.4,1.9-0.6,3.1-0.6c1.1,0,2.1,0.2,2.9,0.5
		c0.8,0.4,1.6,0.9,2.2,1.5L118.6,28z M130.3,33.6c-1.1,0-2.1,0.1-2.9,0.3c-0.8,0.1-1.4,0.3-1.9,0.5c-0.5,0.2-0.8,0.5-1.1,0.8
		c-0.2,0.3-0.3,0.6-0.3,1c0,0.4,0.1,0.7,0.2,0.9c0.1,0.2,0.3,0.5,0.5,0.6c0.2,0.2,0.4,0.3,0.7,0.4c0.3,0.1,0.6,0.1,0.9,0.1
		c0.8,0,1.5-0.2,2.1-0.5c0.6-0.3,1.2-0.8,1.8-1.4V33.6z M121.8,27.1c1.7-1.6,3.8-2.4,6.1-2.4c0.9,0,1.6,0.1,2.3,0.4
		c0.7,0.3,1.3,0.7,1.7,1.2c0.5,0.5,0.8,1.1,1.1,1.8c0.2,0.7,0.4,1.5,0.4,2.3v9.6H132c-0.3,0-0.5,0-0.7-0.1c-0.2-0.1-0.3-0.3-0.4-0.6
		l-0.3-1.2c-0.4,0.3-0.8,0.7-1.1,0.9c-0.4,0.3-0.8,0.5-1.2,0.7c-0.4,0.2-0.8,0.3-1.3,0.4c-0.5,0.1-1,0.1-1.5,0.1
		c-0.6,0-1.2-0.1-1.7-0.3c-0.5-0.2-1-0.4-1.4-0.8c-0.4-0.3-0.7-0.8-0.9-1.3c-0.2-0.5-0.3-1.1-0.3-1.8c0-0.6,0.2-1.2,0.5-1.7
		c0.3-0.6,0.8-1,1.5-1.5c0.7-0.4,1.7-0.8,2.8-1.1c1.2-0.3,2.6-0.5,4.4-0.5v-1c0-1.1-0.2-1.9-0.7-2.4c-0.5-0.5-1.1-0.8-2.1-0.8
		c-0.6,0-1.1,0.1-1.5,0.2c-0.4,0.1-0.8,0.3-1.1,0.5c-0.3,0.2-0.6,0.3-0.8,0.5c-0.2,0.1-0.5,0.2-0.8,0.2c-0.2,0-0.4-0.1-0.6-0.2
		c-0.1-0.1-0.3-0.3-0.4-0.4L121.8,27.1z M140.2,27.8c0.5-1,1-1.7,1.7-2.3c0.7-0.6,1.5-0.8,2.4-0.8c0.3,0,0.6,0,0.9,0.1
		c0.3,0.1,0.5,0.2,0.8,0.3l-0.2,2.4c0,0.2-0.1,0.3-0.2,0.4c-0.1,0.1-0.2,0.1-0.3,0.1c-0.1,0-0.4,0-0.6-0.1c-0.3-0.1-0.6-0.1-0.9-0.1
		c-0.4,0-0.8,0.1-1.2,0.2c-0.3,0.1-0.6,0.3-0.9,0.6c-0.3,0.2-0.5,0.5-0.7,0.9c-0.2,0.4-0.4,0.8-0.6,1.2v9.4h-3.2V25h1.9
		c0.3,0,0.6,0.1,0.7,0.2c0.1,0.1,0.2,0.3,0.3,0.6L140.2,27.8z M157.5,30.9c0-0.5-0.1-1-0.2-1.5c-0.1-0.5-0.4-0.9-0.7-1.2
		c-0.3-0.3-0.7-0.6-1.1-0.8c-0.4-0.2-0.9-0.3-1.5-0.3c-1.2,0-2.1,0.3-2.7,1c-0.7,0.7-1.1,1.6-1.3,2.8H157.5z M149.9,32.9
		c0,0.9,0.2,1.6,0.4,2.2c0.2,0.6,0.5,1.1,0.9,1.6c0.4,0.4,0.8,0.7,1.4,0.9c0.5,0.2,1.1,0.3,1.8,0.3c0.6,0,1.2-0.1,1.6-0.2
		c0.5-0.1,0.9-0.3,1.2-0.5c0.3-0.2,0.6-0.3,0.9-0.5c0.2-0.1,0.5-0.2,0.7-0.2c0.3,0,0.5,0.1,0.6,0.3l0.9,1.2
		c-0.4,0.4-0.8,0.8-1.3,1.1s-1,0.6-1.5,0.8c-0.5,0.2-1.1,0.3-1.6,0.4c-0.6,0.1-1.1,0.1-1.6,0.1c-1,0-2-0.2-2.9-0.5
		c-0.9-0.4-1.7-0.9-2.3-1.6c-0.7-0.7-1.2-1.5-1.5-2.5c-0.4-1-0.5-2.2-0.5-3.5c0-1,0.2-2,0.5-2.9c0.3-0.9,0.8-1.7,1.4-2.4
		c0.6-0.7,1.4-1.2,2.3-1.6c0.9-0.4,1.9-0.6,3-0.6c0.9,0,1.8,0.2,2.6,0.5c0.8,0.3,1.5,0.7,2.1,1.3c0.6,0.6,1,1.3,1.3,2.2
		c0.3,0.8,0.5,1.8,0.5,2.9c0,0.5-0.1,0.8-0.2,1c-0.1,0.2-0.3,0.3-0.6,0.3H149.9z"/>
</g>
</svg>
