<svg width="58" height="53" viewBox="0 0 58 53" fill="none" xmlns="http://www.w3.org/2000/svg">
<path d="M29 8.97377L27.5217 10.355C27.711 10.5576 27.9399 10.7191 28.1942 10.8295C28.4485 10.9399 28.7228 10.9969 29 10.9969C29.2772 10.9969 29.5515 10.9399 29.8058 10.8295C30.0601 10.7191 30.289 10.5576 30.4783 10.355L29 8.97377ZM22.0778 44.6424C18.1661 41.47 13.6017 37.3074 10.03 32.7511C6.41777 28.1461 4.04651 23.4171 4.04651 19.0739H0C0 24.7848 3.04837 30.4095 6.844 35.2491C10.6801 40.14 15.5035 44.5183 19.5285 47.7852L22.0778 44.6424ZM4.04651 19.0739C4.04651 11.2371 7.46716 6.39479 11.6971 4.73572C15.919 3.08205 21.8242 4.26363 27.5217 10.355L30.4783 7.59256C24.0363 0.7027 16.4531 -1.47163 10.2215 0.967073C3.99795 3.40577 0 10.1014 0 19.0739H4.04651ZM38.4688 47.7825C42.4965 44.5156 47.3199 40.1373 51.156 35.2464C54.9516 30.4068 58 24.7821 58 19.0685H53.9535C53.9535 23.4171 51.5795 28.1434 47.97 32.7484C44.3983 37.3048 39.8339 41.4673 35.9222 44.6397L38.4688 47.7825ZM58 19.0685C58 10.0987 54.002 3.40307 47.7758 0.967073C41.5442 -1.47432 33.9637 0.697305 27.5217 7.58986L30.4783 10.355C36.1758 4.26363 42.081 3.07935 46.3029 4.73303C50.5328 6.3894 53.9535 11.2344 53.9535 19.0685H58ZM19.5285 47.7852C22.9545 50.5692 25.3366 52.6114 29 52.6114V48.5648C27.0496 48.5648 25.8356 47.6908 22.0778 44.6424L19.5285 47.7852ZM35.9222 44.6397C32.1644 47.6881 30.9504 48.5648 29 48.5648V52.6114C32.6634 52.6114 35.0455 50.5692 38.4715 47.7852L35.9222 44.6397Z" fill="#004346"/>
<path d="M37.3218 39.5114L42.6255 34.208C42.7817 34.0521 42.8695 33.8406 42.8697 33.62V26.3362C42.8697 25.7844 42.6505 25.2553 42.2603 24.8652C41.8701 24.475 41.341 24.2559 40.7892 24.2559C40.2374 24.2559 39.7083 24.475 39.3181 24.8652C38.9279 25.2553 38.7087 25.7844 38.7087 26.3362V32.5771" stroke="#09BC8A" stroke-width="1.5" stroke-linecap="round" stroke-linejoin="round"/>
<path d="M37.3219 33.9639L38.5119 32.774C38.5744 32.7116 38.624 32.6374 38.6578 32.5558C38.6916 32.4742 38.709 32.3867 38.7089 32.2983C38.7087 32.1736 38.6738 32.0514 38.6082 31.9454C38.5425 31.8393 38.4487 31.7536 38.3372 31.6978L37.7227 31.3913C37.2022 31.131 36.613 31.0411 36.0385 31.1342C35.464 31.2273 34.9333 31.4987 34.5216 31.91L33.2803 33.1512C32.76 33.6713 32.4677 34.3767 32.4675 35.1123V39.5114M20.6783 39.5114L15.3745 34.208C15.2184 34.0521 15.1306 33.8406 15.1304 33.62V26.3362C15.1304 25.7844 15.3496 25.2553 15.7397 24.8652C16.1299 24.475 16.6591 24.2559 17.2108 24.2559C17.7626 24.2559 18.2918 24.475 18.6819 24.8652C19.0721 25.2553 19.2913 25.7844 19.2913 26.3362V32.5771" stroke="#09BC8A" stroke-width="1.5" stroke-linecap="round" stroke-linejoin="round"/>
<path d="M20.678 33.968L19.488 32.7781C19.4255 32.7156 19.376 32.6414 19.3422 32.5598C19.3084 32.4782 19.291 32.3907 19.291 32.3024C19.291 32.0486 19.4353 31.817 19.6627 31.7019L20.2772 31.3954C20.7977 31.1351 21.3869 31.0452 21.9614 31.1383C22.5359 31.2313 23.0666 31.5028 23.4783 31.9141L24.7196 33.1553C25.2399 33.6754 25.5322 34.3808 25.5324 35.1163V39.5155" stroke="#09BC8A" stroke-width="1.5" stroke-linecap="round" stroke-linejoin="round"/>
<path d="M25.5329 27.5866V23.842H21.7881V16.3529H25.5329V12.6084H33.0225V16.3529H36.7674V23.842H33.0225V27.5866H25.5329ZM23.286 19.3486H27.0308C27.1557 19.3486 27.2742 19.3798 27.3866 19.4422C27.4989 19.5046 27.5863 19.5857 27.6487 19.6856L28.3041 20.6592L29.3152 17.6261C29.3651 17.4763 29.4555 17.3515 29.5863 17.2516C29.7171 17.1518 29.8639 17.1019 30.0267 17.1019C30.1515 17.1019 30.2701 17.1331 30.3824 17.1955C30.4948 17.2579 30.5822 17.339 30.6446 17.4389L31.9178 19.3486H35.2694V17.8508H31.5246V14.1062H27.0308V17.8508H23.286V19.3486ZM27.0308 26.0888H31.5246V22.3442H35.2694V20.8464H31.5246C31.3998 20.8464 31.2812 20.8152 31.1689 20.7528C31.0565 20.6904 30.9629 20.6092 30.888 20.5094L30.2514 19.5358L29.2403 22.5689C29.1903 22.7187 29.0967 22.8435 28.9594 22.9433C28.8221 23.0432 28.6723 23.0931 28.51 23.0931C28.3852 23.0931 28.2666 23.0619 28.1543 22.9995C28.0419 22.9371 27.9546 22.856 27.8921 22.7561L26.6189 20.8464H23.286V22.3442H27.0308V26.0888Z" fill="#09BC8A"/>
</svg>
