<svg width="100" height="100" viewBox="0 0 100 100" fill="none" xmlns="http://www.w3.org/2000/svg">
<path d="M18.75 93.75H38.8672L37.3047 100H12.5V6.25H18.75V0H25V6.25H37.5V0H43.75V6.25H56.25V0H62.5V6.25H75V0H81.25V6.25H87.5V37.8906C86.3932 38.0534 85.319 38.3301 84.2773 38.7207C83.2357 39.1113 82.2266 39.6159 81.25 40.2344V12.5H18.75V93.75ZM90.2344 43.75C91.6016 43.75 92.8711 43.9941 94.043 44.4824C95.2148 44.9707 96.2565 45.638 97.168 46.4844C98.0794 47.3307 98.763 48.3561 99.2188 49.5605C99.6745 50.765 99.9349 52.0508 100 53.418C100 54.6875 99.7559 55.9245 99.2676 57.1289C98.7793 58.3333 98.0794 59.3913 97.168 60.3027L62.1582 95.3125L43.75 99.9023L48.3398 81.4941L83.3496 46.5332C84.2936 45.5892 85.3516 44.8893 86.5234 44.4336C87.6953 43.9779 88.9323 43.75 90.2344 43.75ZM92.7246 55.9082C93.4082 55.2246 93.75 54.3945 93.75 53.418C93.75 52.4089 93.4245 51.5951 92.7734 50.9766C92.1224 50.3581 91.276 50.0326 90.2344 50C89.7786 50 89.3392 50.0651 88.916 50.1953C88.4928 50.3255 88.1185 50.5697 87.793 50.9277L54.0039 84.7168L52.3438 91.3086L58.9355 89.6484L92.7246 55.9082Z" fill="black"/>
</svg>
